<svg fill="none" height="24" viewBox="0 0 24 24" width="24" xmlns="http://www.w3.org/2000/svg"><g stroke="#292d32" stroke-linecap="round" stroke-linejoin="round" stroke-width="1.5"><path d="m22 15v-6c0-5-2-7-7-7h-6c-5 0-7 2-7 7v6c0 5 2 7 7 7h6c5 0 7-2 7-7z"/><path d="m2.52002 7.11011h18.95998"/><path d="m8.52002 2.11011v4.86"/><path d="m15.48 2.11011v4.41"/><path d="m9.75 14.4501v-1.2c0-1.54 1.09-2.17 2.42-1.4l1.04.6 1.04.6c1.33.77 1.33 2.03 0 2.8l-1.04.6-1.04.6c-1.33.77-2.42.14-2.42-1.4z" stroke-miterlimit="10"/></g></svg>